<?xml version="1.0" encoding="utf-8"?>
<!-- Generator: Adobe Illustrator 27.5.0, SVG Export Plug-In . SVG Version: 6.00 Build 0)  -->
<svg version="1.1" id="katman_1" xmlns="http://www.w3.org/2000/svg" xmlns:xlink="http://www.w3.org/1999/xlink" x="0px" y="0px"
	 viewBox="0 0 841.89 595.28" style="enable-background:new 0 0 841.89 595.28;" xml:space="preserve">
<style type="text/css">
	.st0{fill:#1D1D1B;}
</style>
<path class="st0" d="M76,312.64h12.27c5.92,0,11-1.27,15.65-3.38c4.65-2.12,8.04-5.5,10.58-9.73c2.54-4.23,3.81-8.88,3.81-14.38
	c0-5.5-1.27-10.15-3.81-14.38c-2.54-4.23-5.92-7.19-10.58-9.73c-4.65-2.12-9.73-3.38-15.65-3.38h-33v79.12H76V312.64z M76,274.99
	h10.58c3.38,0,5.92,0.85,8.04,2.96c2.12,1.69,2.96,4.23,2.96,7.62s-1.27,5.5-2.96,7.19s-4.65,2.96-8.04,2.96l0,0H76V274.99z"/>
<path class="st0" d="M188.12,298.26c2.12-3.81,3.38-8.04,3.38-12.69c0-5.5-1.27-10.15-3.81-14.38c-2.54-4.23-6.35-7.19-10.58-9.73
	l0,0c-4.65-2.12-9.73-3.38-16.08-3.38H127.2v79.12h21.15v-24.54h11l11.85,24.54h22.85l-14.38-29.62
	C183.04,305.03,186.01,302.06,188.12,298.26z M166.97,292.76c-2.12,1.69-4.65,2.96-8.04,2.96l0,0h-10.58v-20.73h11
	c3.38,0,5.92,0.85,8.04,2.96c2.12,1.69,2.96,4.23,2.96,7.62S169.08,291.06,166.97,292.76z"/>
<polygon class="st0" points="224.51,305.45 251.58,305.45 251.58,288.95 224.51,288.95 224.51,275.41 258.35,275.41 258.35,258.06 
	203.78,258.06 203.78,336.76 259.62,336.76 259.62,319.41 224.51,319.41 "/>
<path class="st0" d="M328.58,324.91c2.96-3.81,4.23-8.46,4.23-13.12c0-5.08-1.27-8.88-3.38-12.27c-2.12-2.96-5.08-5.5-8.46-6.77
	c-3.38-1.69-7.62-2.96-13.12-3.81c-5.5-1.27-9.31-2.12-11.42-2.54c-2.54-0.85-4.23-1.27-5.08-2.12c-1.27-0.85-1.69-2.12-1.69-3.81
	c0-2.54,0.85-4.23,2.96-5.5c1.69-1.27,4.23-1.69,7.19-1.69c3.38,0,5.92,0.85,8.04,2.54s2.96,3.81,3.38,6.77h20.31
	c0-4.65-1.27-8.88-4.23-13.12c-2.54-3.81-6.35-6.77-11.42-8.88c-5.08-2.12-10.58-3.38-16.5-3.38c-5.92,0-11,1.27-15.65,3.38
	c-4.65,2.12-8.46,5.08-11,8.88c-2.54,3.81-3.81,8.04-3.81,12.69c0,5.08,1.27,9.31,3.38,12.69c2.12,2.96,5.08,5.5,8.46,7.19
	s8.04,2.96,13.12,3.81c5.5,1.27,9.31,2.12,11.85,2.54c2.54,0.85,4.23,1.27,5.08,2.12c1.27,0.85,1.69,2.12,1.69,3.81
	c0,2.54-0.85,4.23-2.96,5.5c-2.12,1.27-4.65,2.12-8.04,2.12c-4.23,0-7.62-0.85-9.73-2.96l0,0c-2.54-2.12-3.81-4.23-3.81-7.62
	l-21.15-0.42c0,5.08,1.27,9.73,4.23,13.54c2.96,4.23,6.77,7.19,12.27,9.73c5.08,2.54,11,3.38,17.35,3.38
	c5.92,0,11.42-1.27,16.5-3.38C322.24,332.1,326.05,328.72,328.58,324.91z"/>
<polygon class="st0" points="400.93,258.06 337.05,258.06 337.05,275.41 358.62,275.41 358.62,336.76 379.35,336.76 379.35,275.41 
	400.93,275.41 "/>
<path class="st0" d="M422.09,258.06l-28.35,79.12h21.58l4.65-14.81h27.5l5.08,14.81h22.42l-27.5-79.12H422.09z M425.89,305.45
	l8.46-25.81l8.46,25.81H425.89z"/>
<path class="st0" d="M539.28,324.91c2.96-3.81,4.23-8.46,4.23-13.12c0-5.08-1.27-8.88-3.38-12.27c-2.12-2.96-5.08-5.5-8.46-6.77
	c-3.38-1.27-8.04-2.96-13.54-3.81c-5.08-0.85-8.88-1.69-11.42-2.54c-2.54-0.85-4.23-1.27-5.08-2.12c-1.27-0.85-1.69-2.12-1.69-3.81
	c0-2.54,0.85-4.23,2.96-5.5c1.69-1.27,4.23-1.69,7.19-1.69c3.38,0,5.92,0.85,8.04,2.54c2.12,1.69,2.96,3.81,3.38,6.77h20.31
	c0-4.65-1.27-8.88-4.23-13.12c-2.54-3.81-6.35-6.77-11.42-8.88c-4.65-2.12-10.15-3.38-16.08-3.38s-11,1.27-15.65,3.38
	c-4.65,2.12-8.46,5.08-11,8.88c-2.54,3.81-3.81,8.04-3.81,12.69c0,5.08,1.27,9.31,3.38,12.69c2.12,2.96,5.08,5.5,8.46,7.19
	c3.38,1.69,8.04,2.96,13.12,3.81c5.5,1.27,9.31,2.12,11.85,2.54c2.54,0.85,4.23,1.27,5.08,2.12c1.27,0.85,1.69,2.12,1.69,3.81
	c0,2.54-0.85,4.23-2.96,5.5c-2.12,1.27-4.65,2.12-8.04,2.12c-4.23,0-7.62-0.85-9.73-2.96l0,0c-2.54-2.12-3.81-4.23-3.81-7.62
	l-20.31-0.42c0,5.08,1.27,9.73,4.23,13.54c2.96,4.23,6.77,7.19,12.27,9.73s11,3.38,17.35,3.38c6.35,0,11.42-1.27,16.5-3.38
	C532.51,332.1,536.32,328.72,539.28,324.91z"/>
<polygon class="st0" points="601.47,288.1 575.24,288.1 575.24,258.06 554.51,258.06 554.51,336.76 575.24,336.76 575.24,305.87 
	601.47,305.87 601.47,336.76 622.2,336.76 622.2,258.06 601.47,258.06 "/>
<path class="st0" d="M708.09,318.14c3.38-5.92,5.08-13.12,5.08-20.73s-1.69-14.38-5.08-20.73c-3.38-5.92-8.04-11-13.96-14.38
	c-6.35-3.38-13.12-5.08-21.15-5.08s-14.81,1.69-20.73,5.08c-5.92,3.38-10.58,8.46-13.96,14.38c-3.38,5.92-5.08,13.12-5.08,20.73
	c0,7.62,1.69,14.38,5.08,20.73c3.38,5.92,8.04,11,13.96,14.38c5.92,3.38,13.12,5.08,20.73,5.08c8.04,0,14.81-1.69,20.73-5.08
	C700.05,328.72,704.7,324.07,708.09,318.14z M686.93,313.91c-3.38,4.23-8.04,6.35-13.54,6.35s-10.15-2.12-13.54-6.35
	s-5.08-9.73-5.08-16.5s1.69-12.27,5.08-16.5s8.04-6.35,13.54-6.35s10.15,2.12,13.54,6.35s5.08,9.73,5.08,16.5
	C692.01,304.18,690.32,309.68,686.93,313.91z"/>
<path class="st0" d="M772.82,261.45c-4.65-2.12-9.73-3.38-15.65-3.38h-33.42v79.12h20.73v-24.54h12.27c5.92,0,11-1.27,15.65-3.38
	c4.65-2.12,8.04-5.5,10.58-9.73s3.81-8.88,3.81-14.38c0-5.5-1.27-10.15-3.81-14.38S777.47,263.56,772.82,261.45z M763.09,292.76
	c-2.12,1.69-4.65,2.96-8.04,2.96l0,0H744.9v-20.73h10.58c3.38,0,5.92,0.85,8.04,2.96c2.12,1.69,2.96,4.23,2.96,7.62
	S765.2,291.06,763.09,292.76z"/>
</svg>
